<?xml version="1.0" standalone="no"?>
<!DOCTYPE svg PUBLIC "-//W3C//DTD SVG 20010904//EN"
 "http://www.w3.org/TR/2001/REC-SVG-20010904/DTD/svg10.dtd">
<svg version="1.0" xmlns="http://www.w3.org/2000/svg"
 width="960.000000pt" height="960.000000pt" viewBox="0 0 960.000000 960.000000"
 preserveAspectRatio="xMidYMid meet">

<g transform="translate(0.000000,960.000000) scale(0.100000,-0.100000)"
fill="#000000" stroke="none">
<path d="M0 4800 l0 -4800 4800 0 4800 0 0 4800 0 4800 -4800 0 -4800 0 0
-4800z m5220 1571 c209 -45 367 -168 461 -356 55 -110 72 -202 66 -340 -6
-113 -16 -159 -60 -257 -53 -118 -142 -221 -246 -282 -112 -65 -180 -71 -281
-24 -70 32 -123 73 -306 235 -241 212 -396 324 -579 416 -86 43 -248 107 -308
123 l-29 7 4 206 c2 143 7 213 16 228 15 27 59 51 115 63 23 5 269 7 547 6
467 -3 512 -5 600 -25z m-2320 -10 c340 -93 588 -327 689 -651 42 -134 51
-194 51 -354 0 -179 -28 -313 -94 -452 -151 -319 -429 -516 -793 -565 -220
-29 -491 30 -683 149 -102 62 -243 206 -308 311 -189 308 -204 729 -39 1057
68 135 148 233 260 322 119 94 272 166 402 190 33 7 69 14 80 16 11 3 97 3
190 1 133 -2 186 -7 245 -24z m4139 -34 c19 -34 62 -109 96 -167 34 -58 117
-202 185 -320 112 -195 276 -479 430 -745 32 -55 99 -171 150 -258 50 -88 90
-160 88 -162 -2 -2 -33 13 -68 34 -1065 620 -1136 663 -1181 711 -85 90 -119
198 -99 312 13 68 27 97 174 353 165 286 177 305 184 305 4 0 22 -28 41 -63z
m-3240 -408 c68 -11 127 -22 132 -25 5 -3 9 -17 9 -31 0 -20 -4 -24 -17 -18
-66 25 -182 59 -262 76 -52 10 -97 22 -100 24 -7 8 92 -3 238 -26z m276 -143
c303 -150 455 -290 805 -742 108 -140 305 -337 395 -396 182 -118 332 -172
620 -223 34 -6 37 -8 19 -15 -42 -16 -221 -50 -319 -60 -237 -25 -502 27 -711
139 -82 45 -187 120 -290 208 -38 33 -82 68 -98 78 -51 33 -56 12 -56 -222 l0
-203 -250 0 -250 0 0 745 c0 598 3 745 13 745 7 0 62 -24 122 -54z m2695 -720
c30 -12 172 -92 315 -176 307 -181 756 -443 838 -489 31 -18 57 -36 57 -41 0
-5 -163 -7 -370 -4 l-370 5 -155 90 c-85 50 -171 95 -191 101 -91 25 -173 -19
-239 -127 l-42 -70 -307 -2 c-180 -1 -306 2 -306 7 0 14 318 560 349 600 36
45 111 96 170 114 74 23 186 20 251 -8z m-84 -911 c9 -8 13 -19 9 -24 -3 -5 5
-31 17 -57 15 -30 19 -48 12 -51 -8 -3 -8 -24 1 -76 19 -109 23 -217 7 -217
-5 0 -22 83 -38 185 -28 180 -29 184 -51 178 -26 -6 -28 1 -12 46 12 34 32 40
55 16z m-4178 -73 c-8 -9 -6 -16 8 -27 10 -8 22 -15 27 -15 4 0 7 -9 7 -19 0
-11 15 -31 33 -46 17 -15 56 -49 85 -77 59 -58 60 -56 37 65 -16 85 -20 157
-7 157 15 0 52 -83 42 -95 -6 -8 -4 -42 6 -101 24 -137 4 -208 -68 -245 -69
-36 -77 -22 -16 31 45 40 55 54 50 72 -3 12 -56 72 -119 133 -62 61 -113 119
-113 129 0 13 -5 16 -20 11 -17 -5 -20 -2 -20 24 0 19 8 35 21 45 20 14 23 13
40 -7 12 -16 14 -26 7 -35z m1596 29 c15 -13 15 -16 2 -29 -21 -21 -64 -21
-83 0 -33 37 40 63 81 29z m-2146 -84 c6 -34 14 -93 18 -132 3 -38 11 -78 16
-87 15 -29 56 -22 95 17 36 36 53 38 53 6 0 -47 68 -55 130 -16 48 30 50 30
50 5 0 -11 7 -20 15 -20 14 0 23 8 50 45 15 20 15 20 21 -2 3 -13 10 -23 15
-23 5 0 6 6 4 13 -3 6 0 19 5 27 9 13 11 13 20 0 25 -38 -3 -97 -41 -87 -13 4
-35 -1 -50 -10 -26 -16 -29 -16 -48 1 -18 16 -22 16 -50 2 -43 -23 -106 -21
-131 4 l-21 21 -26 -21 c-31 -24 -95 -27 -113 -5 -7 8 -18 65 -26 127 -7 62
-18 132 -24 155 -5 23 -7 49 -3 59 6 16 7 16 19 0 7 -10 17 -45 22 -79z m878
42 c13 -30 15 -44 7 -46 -7 -3 -10 -10 -8 -16 13 -34 34 -220 29 -246 -10 -51
-20 -36 -33 52 -6 45 -19 125 -28 178 -22 132 -8 167 33 78z m905 10 c13 -26
17 -45 11 -51 -5 -5 -3 -44 5 -100 16 -101 11 -153 -16 -168 -20 -10 -286 -7
-312 4 -12 5 -22 -3 -37 -29 -29 -48 -129 -109 -229 -141 -99 -31 -142 -28
-68 5 59 26 187 91 232 117 18 10 42 37 54 59 29 54 59 85 80 85 9 0 26 -16
38 -36 18 -30 26 -35 53 -32 28 3 33 8 39 36 7 36 35 72 55 72 21 0 35 -37 28
-75 -5 -30 -4 -35 13 -35 11 0 27 6 36 13 15 11 15 21 -4 149 -26 170 -20 207
22 127z m101 -6 c13 -28 18 -48 12 -50 -8 -3 -7 -27 2 -76 15 -82 18 -217 6
-217 -8 0 -62 311 -62 356 0 18 8 34 17 34 1 0 13 -21 25 -47z m683 8 c9 -21
14 -47 11 -58 -3 -10 1 -57 9 -103 17 -98 20 -190 5 -190 -5 0 -10 2 -10 4 0
1 -13 80 -29 174 -27 159 -30 212 -11 212 4 0 15 -18 25 -39z m1280 0 c10 -22
15 -47 11 -56 -3 -9 0 -47 6 -84 l12 -68 25 23 c28 26 88 33 109 12 21 -21 14
-67 -14 -93 l-27 -25 50 0 c85 0 88 5 64 146 -23 135 -26 170 -11 179 13 8 54
-75 42 -87 -5 -5 -3 -44 5 -100 16 -102 11 -153 -17 -168 -10 -6 -93 -10 -189
-10 -156 0 -172 2 -183 19 -11 18 -13 18 -67 -6 -112 -50 -238 -38 -262 24
-11 30 -4 93 11 93 6 0 10 -15 10 -34 0 -18 7 -39 15 -46 42 -35 161 -28 246
15 60 31 67 31 71 3 2 -17 11 -24 31 -26 62 -7 67 20 38 192 -18 103 -19 136
-1 136 4 0 15 -18 25 -39z m430 0 c10 -22 15 -47 11 -56 -3 -9 1 -58 9 -108
17 -106 19 -187 5 -187 -12 0 -13 4 -45 201 -23 145 -25 189 -5 189 4 0 15
-18 25 -39z m1035 4 c6 -19 17 -89 25 -156 7 -66 17 -125 23 -131 6 -6 64 -8
142 -6 l132 3 29 33 c16 18 34 30 39 27 6 -4 8 -10 6 -14 -3 -4 2 -17 10 -29
15 -22 47 -28 91 -16 l23 6 -20 25 c-60 77 23 152 124 113 41 -15 30 -26 -26
-26 -29 0 -61 -5 -71 -10 -17 -10 -17 -12 3 -37 26 -33 65 -35 121 -6 23 11
43 18 46 15 30 -30 -130 -117 -228 -124 -48 -4 -60 -1 -79 18 l-22 22 -22 -21
c-21 -19 -34 -21 -169 -21 -137 0 -147 1 -157 20 -6 11 -18 77 -26 146 -8 70
-19 134 -24 143 -10 19 -3 61 10 61 5 0 14 -16 20 -35z m-277 -23 c13 -11 14
-18 5 -32 -18 -28 -98 -17 -98 14 0 31 62 43 93 18z m-3368 -52 c16 -18 17
-22 4 -35 -13 -13 -17 -13 -37 0 -18 14 -20 19 -9 35 15 25 20 25 42 0z m471
-39 c2 -2 10 2 19 9 9 7 18 11 21 8 6 -7 -17 -58 -27 -58 -10 0 16 -107 31
-125 16 -19 53 -19 121 1 89 26 88 40 -2 35 -45 -3 -56 12 -29 39 25 25 39 25
118 0 35 -11 78 -20 96 -20 40 0 48 -7 36 -30 -7 -12 -22 -18 -55 -18 -27 -1
-73 -14 -115 -32 -57 -25 -82 -30 -127 -28 -51 3 -60 6 -78 34 -20 30 -22 30
-52 16 -70 -33 -88 30 -27 98 20 21 33 44 30 49 -3 5 -1 22 5 38 10 27 11 27
21 8 6 -11 12 -22 14 -24z m-1982 -19 c15 -18 15 -20 -2 -35 -18 -16 -20 -16
-36 1 -18 20 -12 52 9 52 6 0 19 -8 29 -18z m4896 -10 c0 -10 -7 -28 -16 -40
-15 -21 -15 -25 1 -42 25 -27 13 -83 -21 -98 -44 -21 -64 -15 -64 17 0 16 4
41 10 55 8 21 5 31 -15 55 -46 54 -18 87 30 35 l23 -25 18 30 c21 35 34 40 34
13z m114 12 c9 -3 16 -12 16 -19 0 -6 18 -20 39 -30 99 -44 68 -128 -72 -196
-38 -19 -48 -20 -61 -9 -18 14 -22 85 -6 95 6 3 10 -5 10 -19 0 -14 4 -28 10
-31 12 -8 76 26 120 63 l34 29 -49 26 c-52 27 -91 70 -80 87 7 12 17 12 39 4z
m-5366 -53 c-7 -9 -13 -17 -14 -19 -4 -7 -44 23 -44 33 0 25 22 34 47 18 19
-13 21 -18 11 -32z m123 2 c15 -17 20 -44 20 -103 0 -47 -62 -104 -138 -126
-74 -21 -118 -12 -143 29 -23 37 -24 48 -9 117 15 69 32 65 24 -5 -10 -77 9
-105 71 -105 48 0 126 34 157 67 16 19 16 22 -3 65 -27 61 -12 102 21 61z
m3047 -17 c22 -8 62 -17 89 -21 72 -10 75 -12 64 -34 -8 -14 -22 -19 -56 -19
-26 -1 -69 -12 -102 -28 -32 -15 -77 -29 -101 -32 -37 -4 -45 -9 -56 -36 -22
-53 -119 -131 -185 -150 -98 -27 -97 -16 2 42 41 24 94 61 118 82 l44 39 -17
31 c-32 57 -15 105 18 54 16 -24 22 -26 65 -20 26 4 65 14 86 23 33 14 35 17
18 23 -11 4 -36 5 -56 2 -45 -5 -57 10 -29 38 24 24 43 25 98 6z m-1879 -47
c27 -30 35 -82 17 -118 -26 -50 -105 -110 -175 -131 -35 -11 -67 -20 -72 -20
-23 0 -4 17 46 44 74 38 187 125 180 137 -4 5 -15 9 -25 9 -34 0 -50 12 -50
37 0 59 42 82 79 42z m2178 13 c7 -4 19 -25 28 -46 13 -30 14 -44 5 -72 -16
-49 -102 -119 -174 -144 -109 -37 -116 -22 -16 34 67 38 162 109 168 127 2 5
-9 9 -25 9 -39 0 -55 13 -55 44 0 45 35 70 69 48z m1412 -14 c29 -30 36 -79
18 -115 -21 -41 -91 -102 -141 -123 -48 -21 -116 -34 -116 -23 0 4 31 24 68
44 68 38 172 116 172 131 0 4 -13 8 -28 8 -47 0 -66 36 -42 81 14 25 44 24 69
-3z m-194 4 c17 -12 38 -87 30 -111 -8 -25 -84 -100 -123 -120 -32 -17 -132
-44 -139 -38 -2 3 24 22 58 42 77 45 179 123 179 137 0 5 -9 21 -20 35 -32 41
-21 81 15 55z m-1432 -110 c14 -15 15 -21 4 -36 -12 -17 -14 -17 -36 1 -15 12
-20 24 -16 36 9 22 28 22 48 -1z m2654 -35 c35 -35 -40 -62 -81 -28 -15 12
-15 16 -2 30 19 21 62 20 83 -2z m-2117 -22 c15 -18 6 -45 -13 -45 -20 0 -40
27 -33 45 7 19 30 19 46 0z m-3215 -291 c51 -33 55 -127 7 -165 -20 -16 -38
-19 -81 -17 l-56 3 -3 98 -3 97 56 0 c34 0 65 -6 80 -16z m475 9 c-1 -20 -19
-32 -55 -35 -28 -2 -41 -8 -43 -20 -3 -15 4 -18 37 -18 64 0 62 -34 -4 -42
-19 -2 -31 -9 -33 -20 -3 -15 4 -18 48 -18 44 0 51 -3 48 -17 -3 -15 -16 -19
-70 -21 l-66 -3 -4 63 c-1 35 -1 80 1 101 l3 37 69 0 c38 0 69 -3 69 -7z m364
-49 l46 -56 0 44 c0 44 13 68 37 68 10 0 13 -25 13 -100 0 -91 -2 -100 -19
-100 -10 0 -38 24 -64 55 l-46 56 -3 -53 c-3 -46 -6 -53 -25 -56 -23 -3 -23
-1 -23 97 0 93 1 101 19 101 12 0 38 -23 65 -56z m544 39 c-2 -11 -14 -19 -30
-21 -27 -3 -27 -5 -30 -80 -3 -71 -5 -77 -25 -80 -22 -3 -23 -1 -23 77 l0 81
-30 0 c-28 0 -40 17 -23 33 3 4 42 7 85 7 70 0 79 -2 76 -17z m374 -30 c8 -27
25 -72 37 -100 l21 -53 -25 0 c-17 0 -29 8 -37 25 -7 16 -19 25 -34 25 -14 0
-30 -10 -40 -25 -9 -15 -26 -25 -39 -25 l-23 0 35 92 c42 113 39 108 67 108
18 0 25 -10 38 -47z m376 -35 l3 -78 44 0 c25 0 45 -2 45 -4 0 -2 3 -12 6 -21
6 -14 -3 -16 -67 -13 l-74 3 -3 98 c-3 98 -3 98 20 95 21 -3 23 -8 26 -80z
m882 64 c13 -11 20 -24 16 -30 -9 -15 -43 -16 -51 -2 -18 29 -75 -7 -75 -48 0
-51 47 -76 90 -50 23 15 44 0 35 -24 -13 -33 -100 -38 -138 -8 -28 23 -43 75
-32 111 20 62 106 90 155 51z m348 -64 l3 -77 47 -3 c35 -2 48 -7 50 -20 3
-16 -5 -18 -66 -18 -80 0 -77 -3 -81 98 -3 76 5 104 27 100 14 -3 18 -18 20
-80z m430 -21 c3 -98 3 -98 -20 -95 -22 3 -23 7 -26 101 -3 98 -3 98 20 95 22
-3 23 -7 26 -101z m373 48 l44 -56 5 53 c4 46 8 53 28 56 22 3 22 1 22 -97 0
-99 -1 -101 -23 -101 -16 0 -35 16 -61 50 -21 28 -41 50 -45 50 -3 0 -6 -21
-6 -47 0 -42 -3 -48 -22 -51 -23 -3 -23 -1 -23 97 0 92 2 101 19 101 10 0 37
-24 62 -55z m439 -46 c0 -98 0 -100 -22 -97 -22 3 -23 8 -26 101 l-3 97 26 0
25 0 0 -101z m438 85 c33 -23 29 -48 -5 -39 -58 14 -76 11 -91 -16 -32 -56 17
-109 73 -79 25 13 45 7 45 -15 0 -21 -33 -35 -80 -35 -93 0 -133 111 -63 176
31 28 87 32 121 8z m-5353 -89 l0 -30 -207 -3 -208 -2 0 35 0 35 208 -2 207
-3 0 -30z m5935 0 l0 -35 -205 0 -205 0 0 35 0 35 205 0 205 0 0 -35z"/>
<path d="M2660 6024 c-114 -24 -224 -86 -316 -178 -98 -98 -145 -167 -180
-266 -25 -70 -27 -87 -28 -244 -1 -93 -2 -162 -4 -153 -6 31 -19 17 -15 -15 3
-24 2 -29 -5 -19 -19 27 -77 24 -107 -6 -9 -9 -39 -18 -68 -21 -33 -3 -45 -7
-33 -12 14 -5 9 -9 -24 -20 -40 -13 -43 -13 -60 10 -10 14 -21 22 -24 20 -13
-14 178 -207 285 -287 131 -98 214 -131 359 -140 144 -9 259 27 394 121 125
87 236 249 271 398 28 118 13 318 -30 422 -16 37 -9 44 23 27 12 -6 22 -4 32
7 13 14 12 15 -3 9 -9 -3 -17 -3 -17 2 0 4 26 11 57 14 35 4 62 12 69 22 15
20 58 19 79 -1 9 -9 18 -14 21 -12 2 3 -2 11 -11 18 -8 7 -15 17 -15 23 0 6
11 0 25 -13 14 -13 27 -21 30 -18 7 7 -123 128 -204 190 -159 120 -324 160
-501 122z m234 -239 c50 -47 71 -109 71 -215 0 -90 -2 -98 -35 -155 l-34 -60
-1 -155 c0 -146 -2 -158 -26 -210 -31 -66 -80 -125 -122 -146 -44 -23 -50 -7
-26 72 40 129 22 286 -42 359 -40 45 -76 47 -119 4 -77 -78 -90 -156 -54 -326
6 -29 4 -33 -14 -33 -27 0 -107 82 -134 139 -30 62 -34 144 -13 234 l17 74
-42 81 c-67 129 -64 225 10 303 45 48 70 49 130 8 112 -75 173 -87 255 -48 25
12 45 23 45 26 0 2 -20 1 -45 -3 -44 -6 -103 2 -92 13 3 3 41 18 84 33 102 37
151 38 187 5z"/>
<path d="M3260 5716 c0 -2 9 -6 20 -9 11 -3 18 -1 14 4 -5 9 -34 13 -34 5z"/>
<path d="M3625 3829 c-10 -15 3 -25 16 -12 7 7 7 13 1 17 -6 3 -14 1 -17 -5z"/>
<path d="M3445 3800 c3 -5 8 -10 11 -10 2 0 4 5 4 10 0 6 -5 10 -11 10 -5 0
-7 -4 -4 -10z"/>
<path d="M5880 3853 c-27 -18 -49 -43 -50 -55 0 -7 108 36 119 48 6 6 -19 24
-34 24 -6 0 -22 -8 -35 -17z"/>
<path d="M4040 3855 c-18 -19 -20 -25 -8 -25 19 0 52 36 40 44 -5 3 -20 -6
-32 -19z"/>
<path d="M6947 3813 c-4 -3 -7 -12 -7 -20 0 -11 4 -11 19 -1 11 7 17 16 15 20
-6 10 -18 10 -27 1z"/>
<path d="M2250 3290 c0 -61 0 -61 27 -58 17 2 33 13 43 31 13 24 13 30 0 55
-10 17 -26 28 -43 30 -27 3 -27 3 -27 -58z"/>
<path d="M4037 3290 c-4 -15 0 -20 13 -20 13 0 17 5 13 20 -3 11 -9 20 -13 20
-4 0 -10 -9 -13 -20z"/>
</g>
</svg>
